HIERARCHY
ROOT Hips
{
    OFFSET 0.000000 0.000000 0.000000
    CHANNELS 6 Xposition Yposition Zposition Zrotation Xrotation Yrotation
    JOINT Spine
    {
        OFFSET -0.000000 7.531363 0.000000
        CHANNELS 3 Zrotation Xrotation Yrotation
        JOINT Spine1
        {
            OFFSET -0.000000 18.201006 0.000000
            CHANNELS 3 Zrotation Xrotation Yrotation
            JOINT Neck
            {
                OFFSET -0.000000 18.126257 1.647842
                CHANNELS 3 Zrotation Xrotation Yrotation
                JOINT Head
                {
                    OFFSET -0.000000 12.858423 -1.836918
                    CHANNELS 3 Zrotation Xrotation Yrotation
                    End Site
                    {
                        OFFSET -0.000000 22.961470 0.000000
                    }
                }
            }
            JOINT LeftShoulder
            {
                OFFSET 3.667172 16.561186 -0.216348
                CHANNELS 3 Zrotation Xrotation Yrotation
                JOINT LeftArm
                {
                    OFFSET 9.930305 0.000000 0.000000
                    CHANNELS 3 Zrotation Xrotation Yrotation
                    JOINT LeftForeArm
                    {
                        OFFSET 26.018173 0.000000 0.000000
                        CHANNELS 3 Zrotation Xrotation Yrotation
                        JOINT LeftHand
                        {
                            OFFSET 24.998920 0.000000 0.000000
                            CHANNELS 3 Zrotation Xrotation Yrotation
                            End Site
                            {
                                OFFSET 13.776883 0.000000 0.000000
                            }
                        }
                    }
                }
            }
            JOINT RightShoulder
            {
                OFFSET -3.672976 16.561186 -0.216348
                CHANNELS 3 Zrotation Xrotation Yrotation
                JOINT RightArm
                {
                    OFFSET -9.930305 0.000000 0.000000
                    CHANNELS 3 Zrotation Xrotation Yrotation
                    JOINT RightForeArm
                    {
                        OFFSET -26.018173 0.000000 0.000000
                        CHANNELS 3 Zrotation Xrotation Yrotation
                        JOINT RightHand
                        {
                            OFFSET -24.998920 0.000000 0.000000
                            CHANNELS 3 Zrotation Xrotation Yrotation
                            End Site
                            {
                                OFFSET -13.776883 0.000000 0.000000
                            }
                        }
                    }
                }
            }
        }
    }
    JOINT LeftUpLeg
    {
        OFFSET 9.184588 0.000000 0.000000
        CHANNELS 3 Zrotation Xrotation Yrotation
        JOINT LeftLeg
        {
            OFFSET -0.000000 -39.614780 0.000000
            CHANNELS 3 Zrotation Xrotation Yrotation
            JOINT LeftFoot
            {
                OFFSET -0.000000 -41.356068 0.000000
                CHANNELS 3 Zrotation Xrotation Yrotation
                JOINT LeftToeBase
                {
                    OFFSET -0.000000 -5.969982 13.776883
                    CHANNELS 3 Zrotation Xrotation Yrotation
                    End Site
                    {
                        OFFSET -0.000000 0.000000 3.673835
                    }
                }
            }
        }
    }
    JOINT RightUpLeg
    {
        OFFSET -9.184588 0.000000 0.000000
        CHANNELS 3 Zrotation Xrotation Yrotation
        JOINT RightLeg
        {
            OFFSET -0.000000 -39.614780 0.000000
            CHANNELS 3 Zrotation Xrotation Yrotation
            JOINT RightFoot
            {
                OFFSET -0.000000 -41.356068 0.000000
                CHANNELS 3 Zrotation Xrotation Yrotation
                JOINT RightToeBase
                {
                    OFFSET -0.000000 -5.969982 13.776883
                    CHANNELS 3 Zrotation Xrotation Yrotation
                    End Site
                    {
                        OFFSET -0.000000 0.000000 3.673835
                    }
                }
            }
        }
    }
}
MOTION
Frames:    4
Frame Time:    0.008333
14.887068    87.857323    -20.552959    -10.947032    1.106348    -6.809673    5.566684    -4.047850    2.607526    2.599216    2.320468    2.358057    -0.831861    16.254244    -3.338648    -0.463331    21.103056    -3.457587    6.416800    5.237890    5.990146    -55.771370    58.265419    -17.288864    8.371730    -13.662766    -16.465126    2.890761    -12.282625    8.044513    3.557223    9.389002    4.929748    65.549706    44.942204    2.788085    -20.415813    -19.189293    7.244847    9.126374    -17.381142    7.483357    7.377017    -1.157402    3.608103    -7.579332    12.200272    3.388649    15.415419    -19.496363    2.855356    0.000000    0.000000    0.000000    -25.358187    -30.237129    -11.025455    -0.137925    32.567863    -7.897209    6.501948    -6.137805    6.635094    0.000000    0.000000    0.000000    
14.888549    87.897240    -20.568153    -11.091580    1.069888    -6.819248    5.708317    -3.972465    2.602326    2.578265    2.269382    2.353162    -0.840436    16.261467    -3.323988    -0.448363    21.138592    -3.442885    6.429015    5.256063    6.001689    -55.671017    58.286911    -17.346022    8.419607    -13.646680    -16.462105    2.863927    -12.262676    8.005181    3.560359    9.422444    4.930397    65.605858    44.930344    2.757147    -20.454077    -19.189039    7.175572    9.025746    -17.402317    7.410245    7.525533    -1.111634    3.659721    -7.576998    12.201499    3.336448    15.392971    -19.407999    2.829354    0.000000    0.000000    0.000000    -25.720558    -30.320637    -11.291575    -0.273011    32.465336    -8.006519    6.340622    -6.040177    6.500126    0.000000    0.000000    0.000000    
14.890307    87.930191    -20.586700    -11.216256    1.062187    -6.820166    5.828853    -3.933843    2.599780    2.568122    2.225863    2.349569    -0.845802    16.271927    -3.306002    -0.442858    21.169443    -3.424366    6.428140    5.266473    6.011339    -55.561386    58.288410    -17.414557    8.430041    -13.671911    -16.451632    2.906376    -12.285503    7.962503    3.563956    9.426851    4.935318    65.686798    44.924202    2.681716    -20.460823    -19.133907    7.114569    8.634892    -17.388481    7.307460    7.646974    -1.103381    3.704743    -7.556350    12.206180    3.286000    15.369138    -19.337009    2.810084    0.000000    0.000000    0.000000    -26.099463    -30.422297    -11.429690    -0.497356    32.492485    -7.907177    6.438294    -6.059447    6.493600    0.000000    0.000000    0.000000    
14.890246    87.961159    -20.597145    -11.342667    1.020146    -6.813813    5.943742    -3.872727    2.598128    2.569334    2.191665    2.347888    -0.859281    16.306982    -3.297837    -0.434214    21.161707    -3.416571    6.412519    5.278639    6.003617    -55.464294    58.186996    -17.467186    8.381901    -13.622323    -16.443697    2.950001    -12.241500    7.906156    3.550073    9.445918    4.912881    65.751053    44.951019    2.626625    -20.493656    -19.072493    7.070457    8.434048    -17.356194    7.140619    7.762481    -1.057042    3.737530    -7.526142    12.212000    3.222984    15.347831    -19.272890    2.791296    0.000000    0.000000    0.000000    -26.457521    -30.476812    -11.511100    -0.611542    32.456764    -7.975159    6.538403    -6.193097    6.384772    0.000000    0.000000    0.000000    
